<?xml version="1.0" encoding="UTF-8" standalone="no"?>
<!-- Created with Inkscape (http://www.inkscape.org/) -->

<svg
   width="200mm"
   height="100mm"
   viewBox="0 0 200 100"
   version="1.1"
   id="svg5"
   inkscape:version="1.1.1 (3bf5ae0d25, 2021-09-20)"
   sodipodi:docname="flip-pgh-weekly-tournament-black-v2.svg"
   inkscape:export-filename="C:\Users\jjsz1\OneDrive\Documents\flip-pgh-logos\flip-pgh-weekly-tournament-white.png"
   inkscape:export-xdpi="96"
   inkscape:export-ydpi="96"
   xmlns:inkscape="http://www.inkscape.org/namespaces/inkscape"
   xmlns:sodipodi="http://sodipodi.sourceforge.net/DTD/sodipodi-0.dtd"
   xmlns="http://www.w3.org/2000/svg"
   xmlns:svg="http://www.w3.org/2000/svg">
  <sodipodi:namedview
     id="namedview7"
     pagecolor="#ffffff"
     bordercolor="#666666"
     borderopacity="1.0"
     inkscape:pageshadow="2"
     inkscape:pageopacity="1"
     inkscape:pagecheckerboard="0"
     inkscape:document-units="mm"
     showgrid="false"
     inkscape:zoom="0.94237252"
     inkscape:cx="197.90475"
     inkscape:cy="216.4749"
     inkscape:window-width="1920"
     inkscape:window-height="986"
     inkscape:window-x="-11"
     inkscape:window-y="-11"
     inkscape:window-maximized="1"
     inkscape:current-layer="layer1"
     fit-margin-left="0"
     width="200mm" />
  <defs
     id="defs2">
    <rect
       x="675.31267"
       y="29.263549"
       width="30.764244"
       height="58.527098"
       id="rect11209" />
    <inkscape:path-effect
       effect="spiro"
       id="path-effect3268"
       is_visible="true"
       lpeversion="1" />
    <inkscape:path-effect
       effect="spiro"
       id="path-effect3014"
       is_visible="true"
       lpeversion="1" />
    <inkscape:path-effect
       effect="spiro"
       id="path-effect1046"
       is_visible="true"
       lpeversion="1" />
    <inkscape:path-effect
       effect="spiro"
       id="path-effect114"
       is_visible="true"
       lpeversion="1" />
    <inkscape:path-effect
       effect="spiro"
       id="path-effect77"
       is_visible="true"
       lpeversion="1" />
  </defs>
  <g
     inkscape:label="Layer 1"
     inkscape:groupmode="layer"
     id="layer1"
     transform="translate(-4.4444722,-10.241247)">
    <path
       style="fill:none;stroke:#000000;stroke-width:2;stroke-linecap:butt;stroke-linejoin:miter;stroke-miterlimit:4;stroke-dasharray:none;stroke-opacity:1"
       d="m 19.116235,84.724758 c 9.49291,9.10807 22.322077,14.659169 35.45997,15.343302 7.923788,0.41262 15.825625,-0.878435 23.745874,-1.35417 7.920249,-0.475736 16.1698,-0.06514 23.266741,3.48311 3.29547,1.64764 6.26376,3.94651 8.68336,6.72507"
       id="path75"
       inkscape:path-effect="#path-effect77"
       inkscape:original-d="m 19.116235,84.724758 c 5.20259,2.99708 30.25787,12.346806 35.45997,15.343302 5.2021,2.99649 27.46476,0.41899 47.012615,2.12894 19.54785,1.70995 -5.339084,-1.49098 8.68336,6.72507"
       sodipodi:nodetypes="cssc" />
    <path
       style="fill:none;stroke:#000000;stroke-width:2.1069;stroke-linecap:butt;stroke-linejoin:miter;stroke-miterlimit:4;stroke-dasharray:none;stroke-opacity:1"
       d="m 75.527005,32.508188 c 6.424176,-2.274962 12.629104,-5.168589 18.501003,-8.627822 5.722128,-3.371 11.127802,-7.278895 16.122872,-11.655616"
       id="path1044"
       inkscape:path-effect="#path-effect1046"
       inkscape:original-d="M 75.527005,32.508188 C 81.656789,28.766447 87.898986,27.62242 94.028008,23.880366 100.15705,20.138303 100.95301,23.545193 110.15088,12.22475"
       sodipodi:nodetypes="csc" />
    <path
       style="fill:none;stroke:#000000;stroke-width:2;stroke-linecap:butt;stroke-linejoin:miter;stroke-miterlimit:4;stroke-dasharray:none;stroke-opacity:1"
       d="m 66.359087,38.288739 c 2.849788,-2.380225 6.762998,-3.435065 10.422994,-2.809609 3.659996,0.625456 7.00084,2.919939 8.898476,6.11145 1.868866,3.143125 2.307674,7.100457 1.172789,10.576652 -1.134885,3.476195 -3.824208,6.412276 -7.187679,7.847183"
       id="path3012"
       inkscape:path-effect="#path-effect3014"
       inkscape:original-d="m 66.359087,38.288739 c 6.86054,0.266018 12.46119,3.036532 19.32147,3.301841 6.8603,0.265304 -3.60004,11.448415 -6.01489,18.423835"
       sodipodi:nodetypes="csc" />
    <path
       style="fill:none;stroke:#000000;stroke-width:2;stroke-linecap:butt;stroke-linejoin:miter;stroke-miterlimit:4;stroke-dasharray:none;stroke-opacity:1"
       d="M 66.359087,38.288739 20.595627,73.521695"
       id="path3129" />
    <path
       style="fill:none;stroke:#000000;stroke-width:2;stroke-linecap:butt;stroke-linejoin:miter;stroke-miterlimit:4;stroke-dasharray:none;stroke-opacity:1"
       d="m 79.665667,60.014415 -54.99316,21.90307"
       id="path3129-9"
       sodipodi:nodetypes="cc" />
    <path
       style="fill:none;stroke:#000000;stroke-width:2;stroke-linecap:round;stroke-linejoin:miter;stroke-miterlimit:4;stroke-dasharray:none;stroke-opacity:1"
       d="m 20.595627,73.521695 c -1.027977,0.437284 -1.888324,1.256354 -2.375582,2.261608 -0.487257,1.005254 -0.597231,2.188038 -0.303658,3.265892 0.369757,1.357564 1.387154,2.523161 2.682287,3.073006 1.295133,0.549845 2.840346,0.472195 4.073833,-0.204716"
       id="path3266"
       inkscape:path-effect="#path-effect3268"
       inkscape:original-d="m 20.595627,73.521695 c -1.4599,2.5323 -1.21904,2.99591 -2.67924,5.5275 -1.46017,2.53159 3.74807,3.00764 6.75612,2.86829"
       sodipodi:nodetypes="csc" />
    <path
       id="text5848"
       style="font-style:normal;font-variant:normal;font-weight:bold;font-stretch:normal;font-size:17.6389px;line-height:1.25;font-family:'Century Gothic';-inkscape-font-specification:'Century Gothic, Bold';font-variant-ligatures:normal;font-variant-caps:normal;font-variant-numeric:normal;font-variant-east-asian:normal;fill:#ffd200;fill-opacity:1;stroke:none;stroke-width:0.999999"
       d="M 292.12891 235.49023 C 284.16449 235.49023 277.69618 238.28016 272.72656 243.85742 C 268.53819 248.54493 266.44531 254.05577 266.44531 260.39258 C 266.44531 265.01498 267.57313 269.32335 269.83008 273.31641 C 272.10873 277.30946 275.18967 280.39041 279.07422 282.56055 C 282.98047 284.70899 287.41905 285.7832 292.38867 285.7832 C 297.03277 285.7832 301.08073 284.79709 304.53125 282.82227 C 307.98177 280.84744 310.7908 277.98286 312.96094 274.22852 C 315.13108 270.47417 316.2168 266.50282 316.2168 262.31445 L 316.15234 260.29492 L 292.0625 260.29492 L 292.0625 268.85742 L 305.92969 268.85742 C 304.6059 271.6786 302.85959 273.75043 300.68945 275.07422 C 298.54101 276.398 295.8928 277.06055 292.74609 277.06055 C 287.90668 277.06055 283.83768 275.454 280.53906 272.24219 C 277.24045 269.03038 275.5918 265.11263 275.5918 260.49023 C 275.5918 256.01975 277.17535 252.22266 280.34375 249.09766 C 283.53386 245.97265 287.48415 244.41016 292.19336 244.41016 C 297.59701 244.41016 302.32856 246.55859 306.38672 250.85547 L 312.79883 244.50781 C 309.86914 241.33941 306.87435 239.10482 303.81445 237.80273 C 300.19032 236.26193 296.29558 235.49023 292.12891 235.49023 z M 231.22266 236.69531 L 231.22266 284.58008 L 240.33789 284.58008 L 240.33789 264.29883 C 244.98199 264.29883 248.18359 264.04991 249.94141 263.55078 C 252.9362 262.68273 255.301 261.14128 257.03711 258.92773 C 258.79492 256.71419 259.67383 253.93772 259.67383 250.5957 C 259.67383 247.57921 259.00174 244.9961 257.65625 242.84766 C 256.33246 240.67752 254.50955 239.11502 252.1875 238.16016 C 249.88715 237.18359 246.12066 236.69531 240.89062 236.69531 L 231.22266 236.69531 z M 324.55078 236.69531 L 324.55078 284.58008 L 333.79492 284.58008 L 333.79492 263.58398 L 349.81055 263.58398 L 349.81055 284.58008 L 359.02344 284.58008 L 359.02344 236.69531 L 349.81055 236.69531 L 349.81055 254.76172 L 333.79492 254.76172 L 333.79492 236.69531 L 324.55078 236.69531 z M 240.33789 245.61523 L 242.91016 245.61523 C 245.73134 245.61523 247.66146 245.92925 248.70312 246.55859 C 250.13542 247.40495 250.85156 248.75108 250.85156 250.5957 C 250.85156 251.65907 250.59115 252.57053 250.07031 253.33008 C 249.57118 254.06793 248.87804 254.59831 247.98828 254.92383 C 247.09852 255.24935 245.51302 255.41211 243.23438 255.41211 L 240.33789 255.41211 L 240.33789 245.61523 z "
       transform="matrix(0.26458333,0,0,0.26458333,4.4444722,10.241247)" />
    <path
       id="text7304"
       style="font-style:normal;font-variant:normal;font-weight:bold;font-stretch:normal;font-size:14.1111px;line-height:1.25;font-family:'Century Gothic';-inkscape-font-specification:'Century Gothic, Bold';font-variant-ligatures:normal;font-variant-caps:normal;font-variant-numeric:normal;font-variant-east-asian:normal;fill:#ffd200;fill-opacity:1;stroke:none;stroke-width:0.999999"
       d="M 209.88281 165.78125 C 207.71278 165.69848 205.60707 166.20012 203.56641 167.28516 C 202.06417 168.08391 200.80383 169.11665 199.78711 170.38477 C 198.77039 171.65288 197.998 173.1551 197.4668 174.89258 L 196 172.13477 L 189.76758 175.44727 L 207.93555 209.61523 L 214.16602 206.30273 L 207.89453 194.50781 C 209.74029 195.02077 211.42264 195.20737 212.94141 195.06836 C 214.45202 194.91402 215.92822 194.45365 217.36914 193.6875 C 220.60355 191.96774 222.73741 189.23036 223.76953 185.47656 C 224.7935 181.70743 224.31457 177.96126 222.33398 174.23633 C 220.28005 170.37344 217.45562 167.81408 213.85938 166.56055 C 212.51078 166.09047 211.18483 165.83091 209.88281 165.78125 z M 177.1543 169.32422 C 176.57697 169.37557 176.01278 169.54838 175.46094 169.8418 C 174.35725 170.42864 173.62196 171.32012 173.25586 172.51758 C 172.88976 173.71503 173.00105 174.86507 173.58789 175.96875 C 174.19918 177.11842 175.11046 177.89231 176.32422 178.28906 C 177.54515 178.66234 178.71692 178.55202 179.83594 177.95703 C 180.92429 177.37834 181.65148 176.49042 182.01758 175.29297 C 182.37553 174.08019 182.2571 172.91393 181.66211 171.79492 C 181.05897 170.66058 180.14671 169.90648 178.92578 169.5332 C 178.32298 169.34249 177.73162 169.27287 177.1543 169.32422 z M 209.05078 172.83789 C 209.80042 172.85406 210.55456 172.9933 211.3125 173.25391 C 213.32553 173.93354 214.90189 175.34614 216.04297 177.49219 C 217.1922 179.65357 217.47893 181.78303 216.90234 183.87891 C 216.34108 185.96664 215.10166 187.51829 213.18555 188.53711 C 211.20811 189.58853 209.20609 189.7789 207.17773 189.10742 C 205.14123 188.42061 203.53144 186.96684 202.34961 184.74414 C 201.19223 182.56743 200.90648 180.45776 201.49219 178.41602 C 202.0779 176.37427 203.3585 174.82681 205.33594 173.77539 C 206.56225 173.12335 207.80139 172.81094 209.05078 172.83789 z M 167.66406 174.8125 L 161.38672 178.15039 L 179.82227 212.82422 L 186.09961 209.48633 L 167.66406 174.8125 z M 184.08789 178.4668 L 177.78906 181.81641 L 191.08984 206.83398 L 197.39062 203.48438 L 184.08789 178.4668 z M 157.4707 181.32422 L 140.68555 190.25 L 158.66992 224.07227 L 165.03906 220.68555 L 156.94531 205.46484 L 167.36133 199.92578 L 164.07227 193.74023 L 153.65625 199.2793 L 150.39258 193.14062 L 160.80859 187.60156 L 157.4707 181.32422 z "
       transform="matrix(0.26458333,0,0,0.26458333,4.4444722,10.241247)" />
    <circle
       style="opacity:1;fill:#000000;fill-opacity:1;fill-rule:nonzero;stroke-width:0.462;stroke-miterlimit:4;stroke-dasharray:none"
       id="path10178"
       cx="76.326202"
       cy="47.4585"
       r="4" />
    <path
       id="text2429"
       style="font-style:normal;font-weight:normal;font-size:10.5833px;line-height:1.25;font-family:sans-serif;fill:#000000;fill-opacity:1;stroke:none;stroke-width:1.00157;stroke-miterlimit:4;stroke-dasharray:none"
       d="M 522.54688 102.80273 L 522.54688 142.07227 L 529.65625 142.07227 L 529.65625 129.02539 L 541.6875 142.07227 L 550.51562 142.07227 L 536.84375 127.33398 L 549.03125 113.74023 L 540.125 113.74023 L 529.65625 125.43164 L 529.65625 102.80273 L 522.54688 102.80273 z M 552.67773 102.80273 L 552.67773 142.07227 L 559.78711 142.07227 L 559.78711 102.80273 L 552.67773 102.80273 z M 404.08398 103.76562 L 412.75586 142.07227 L 419.68359 142.07227 L 426.60938 117.30664 L 433.66797 142.07227 L 440.67188 142.07227 L 449.29297 103.76562 L 442.10547 103.76562 L 436.63672 128.21875 L 429.70898 103.76562 L 423.64062 103.76562 L 416.79297 128.21875 L 411.27148 103.76562 L 404.08398 103.76562 z M 467.54688 113.00977 C 463.34549 113.00977 459.84787 114.44206 457.05273 117.30664 C 454.27496 120.15386 452.88672 123.73959 452.88672 128.0625 C 452.88672 132.28125 454.28299 135.79688 457.07812 138.60938 C 459.87326 141.40451 463.49306 142.80273 467.9375 142.80273 C 470.80208 142.80273 473.27604 142.29796 475.35938 141.29102 C 477.44271 140.26671 479.23155 138.69618 480.72461 136.57812 L 474.73438 133.76562 C 472.82465 135.62326 470.54297 136.55273 467.88672 136.55273 C 465.6645 136.55273 463.8316 135.9618 462.39062 134.78125 C 460.96701 133.58333 460.09158 131.97678 459.76172 129.96289 L 482.59961 129.96289 L 482.625 128.60938 C 482.625 123.92188 481.22873 120.15386 478.43359 117.30664 C 475.63846 114.44206 472.00868 113.00977 467.54688 113.00977 z M 501.6875 113.00977 C 497.48611 113.00977 493.9885 114.44206 491.19336 117.30664 C 488.41558 120.15386 487.02734 123.73959 487.02734 128.0625 C 487.02734 132.28125 488.42361 135.79688 491.21875 138.60938 C 494.01389 141.40451 497.63368 142.80273 502.07812 142.80273 C 504.94271 142.80273 507.41667 142.29796 509.5 141.29102 C 511.58333 140.26671 513.37218 138.69618 514.86523 136.57812 L 508.875 133.76562 C 506.96528 135.62326 504.68359 136.55273 502.02734 136.55273 C 499.80512 136.55273 497.97222 135.9618 496.53125 134.78125 C 495.10764 133.58333 494.2322 131.97678 493.90234 129.96289 L 516.74023 129.96289 L 516.76562 128.60938 C 516.76562 123.92188 515.36936 120.15386 512.57422 117.30664 C 509.77908 114.44206 506.1493 113.00977 501.6875 113.00977 z M 563.06836 113.74023 L 573.84961 139.96289 L 568.01562 152.4375 L 575.35938 152.4375 L 593.12109 113.74023 L 585.82812 113.74023 L 577.70312 131.52539 L 570.33398 113.74023 L 563.06836 113.74023 z M 467.88672 119.02539 C 469.70963 119.02539 471.30621 119.52018 472.67773 120.50977 C 474.06662 121.49935 474.99609 122.78537 475.46484 124.36523 L 460.07422 124.36523 C 460.87283 122.61176 461.74024 121.3878 462.67773 120.69336 C 464.17079 119.58225 465.90755 119.02539 467.88672 119.02539 z M 502.02734 119.02539 C 503.85026 119.02539 505.44683 119.52018 506.81836 120.50977 C 508.20725 121.49935 509.13672 122.78537 509.60547 124.36523 L 494.21484 124.36523 C 495.01345 122.61176 495.88086 121.3878 496.81836 120.69336 C 498.31141 119.58225 500.04818 119.02539 502.02734 119.02539 z M 438.875 168.74023 C 437.625 168.74023 436.55729 169.18294 435.67188 170.06836 C 434.78646 170.95378 434.34375 172.02149 434.34375 173.27148 C 434.34375 174.57357 434.78646 175.68338 435.67188 176.60352 C 436.57465 177.50629 437.66037 177.95898 438.92773 177.95898 C 440.16037 177.95898 441.22005 177.51628 442.10547 176.63086 C 442.99088 175.72808 443.43359 174.64236 443.43359 173.375 C 443.43359 172.09028 442.9809 170.99653 442.07812 170.09375 C 441.19271 169.19097 440.125 168.74023 438.875 168.74023 z M 480.88086 169.46875 L 480.88086 208.74023 L 487.9375 208.74023 L 487.9375 205.74414 C 489.32639 207.06358 490.72461 208.0191 492.13086 208.60938 C 493.53711 209.18229 495.05556 209.46875 496.6875 209.46875 C 500.35069 209.46875 503.51975 208.05447 506.19336 205.22461 C 508.86697 202.37739 510.20312 198.84375 510.20312 194.625 C 510.20312 190.25 508.91102 186.66428 506.32422 183.86914 C 503.73742 181.074 500.5944 179.67773 496.89648 179.67773 C 495.1951 179.67773 493.59852 179.99826 492.10547 180.64062 C 490.61241 181.28299 489.22222 182.24653 487.9375 183.53125 L 487.9375 169.46875 L 480.88086 169.46875 z M 550.54297 169.46875 L 550.54297 208.74023 L 557.65234 208.74023 L 557.65234 169.46875 L 550.54297 169.46875 z M 563.32812 169.46875 L 563.32812 208.74023 L 570.4375 208.74023 L 570.4375 169.46875 L 563.32812 169.46875 z M 406.97461 170.43164 L 406.97461 208.74023 L 414.26562 208.74023 L 414.26562 192.51562 C 417.9809 192.51562 420.54297 192.31532 421.94922 191.91602 C 424.34505 191.22157 426.23611 189.98958 427.625 188.21875 C 429.03125 186.44792 429.73438 184.22634 429.73438 181.55273 C 429.73438 179.13954 429.19748 177.07226 428.12109 175.35352 C 427.06207 173.61741 425.60373 172.3674 423.74609 171.60352 C 421.90582 170.82227 418.89301 170.43164 414.70898 170.43164 L 406.97461 170.43164 z M 414.26562 177.56836 L 416.32422 177.56836 C 418.58116 177.56836 420.12565 177.81879 420.95898 178.32227 C 422.10482 178.99935 422.67773 180.07704 422.67773 181.55273 C 422.67773 182.40343 422.4694 183.1326 422.05273 183.74023 C 421.65343 184.33051 421.09852 184.75521 420.38672 185.01562 C 419.67491 185.27604 418.4069 185.40625 416.58398 185.40625 L 414.26562 185.40625 L 414.26562 177.56836 z M 464.37109 179.67773 C 462.99957 179.67773 461.65343 179.94618 460.33398 180.48438 C 459.0319 181.00521 457.57357 181.94271 455.95898 183.29688 L 455.95898 180.40625 L 448.875 180.40625 L 448.875 208.74023 L 455.95898 208.74023 L 455.95898 197.35938 C 455.95898 194.40799 456.06315 192.48893 456.27148 191.60352 C 456.67079 189.90213 457.38195 188.574 458.40625 187.61914 C 459.44792 186.64692 460.68989 186.16211 462.13086 186.16211 C 463.24197 186.16211 464.17144 186.4566 464.91797 187.04688 C 465.68186 187.61979 466.21072 188.46116 466.50586 189.57227 C 466.81836 190.68338 466.97461 192.93295 466.97461 196.31836 L 466.97461 208.74023 L 474.00586 208.74023 L 474.00586 190.01562 C 474.00586 186.75174 473.18055 184.28581 471.53125 182.61914 C 469.56945 180.65734 467.18359 179.67773 464.37109 179.67773 z M 528.09375 179.67773 C 524.39584 179.67773 521.25477 181.074 518.66797 183.86914 C 516.08117 186.66428 514.78711 190.25 514.78711 194.625 C 514.78711 198.84375 516.12327 202.37739 518.79688 205.22461 C 521.47048 208.05447 524.63954 209.46875 528.30273 209.46875 C 529.93468 209.46875 531.4451 209.18229 532.83398 208.60938 C 534.24023 208.0191 535.63846 207.06358 537.02734 205.74414 L 537.02734 208.74023 L 544.10938 208.74023 L 544.10938 180.40625 L 537.02734 180.40625 L 537.02734 183.53125 C 535.75998 182.24653 534.37977 181.28299 532.88672 180.64062 C 531.39366 179.99826 529.79514 179.67773 528.09375 179.67773 z M 435.30859 180.40625 L 435.30859 208.74023 L 442.44336 208.74023 L 442.44336 180.40625 L 435.30859 180.40625 z M 495.41211 186.24023 C 497.63433 186.24023 499.47526 187.02149 500.93359 188.58398 C 502.39193 190.12912 503.12109 192.11632 503.12109 194.54688 C 503.12109 196.99479 502.37391 199.00803 500.88086 200.58789 C 499.40517 202.16775 497.58225 202.95898 495.41211 202.95898 C 493.17253 202.95898 491.31554 202.18576 489.83984 200.64062 C 488.36415 199.07813 487.625 197.03884 487.625 194.52148 C 487.625 192.05621 488.36415 190.05903 489.83984 188.53125 C 491.31554 187.00347 493.17253 186.24023 495.41211 186.24023 z M 529.55273 186.24023 C 531.80968 186.24023 533.67665 187.00347 535.15234 188.53125 C 536.62804 190.05903 537.36523 192.05621 537.36523 194.52148 C 537.36523 197.03884 536.62804 199.07813 535.15234 200.64062 C 533.67665 202.18576 531.81771 202.95898 529.57812 202.95898 C 527.40799 202.95898 525.57704 202.16775 524.08398 200.58789 C 522.60829 199.00803 521.87109 196.99479 521.87109 194.54688 C 521.87109 192.11632 522.60026 190.12912 524.05859 188.58398 C 525.51693 187.02149 527.34787 186.24023 529.55273 186.24023 z M 696.16797 236.63086 L 696.16797 247.07227 L 692.52148 247.07227 L 692.52148 253.19336 L 696.16797 253.19336 L 696.16797 275.40625 L 703.25 275.40625 L 703.25 253.19336 L 707.46875 253.19336 L 707.46875 247.07227 L 703.25 247.07227 L 703.25 236.63086 L 696.16797 236.63086 z M 403.22461 237.09961 L 403.22461 244.28711 L 410.02148 244.28711 L 410.02148 275.40625 L 417.41797 275.40625 L 417.41797 244.28711 L 424.39648 244.28711 L 424.39648 237.09961 L 403.22461 237.09961 z M 441.92188 246.34375 C 438.22396 246.34375 434.95269 247.62782 432.10547 250.19727 C 428.85894 253.14865 427.23438 256.83855 427.23438 261.26562 C 427.23438 265.39757 428.66667 268.9132 431.53125 271.8125 C 434.41319 274.69444 437.88672 276.13477 441.94922 276.13477 C 444.70963 276.13477 447.23568 275.48372 449.52734 274.18164 C 451.81901 272.8622 453.62392 271.03928 454.94336 268.71289 C 456.28016 266.3865 456.94922 263.8865 456.94922 261.21289 C 456.94922 258.55664 456.28819 256.08268 454.96875 253.79102 C 453.64931 251.49935 451.81033 249.68641 449.44922 248.34961 C 447.10547 247.0128 444.59548 246.34375 441.92188 246.34375 z M 505.41211 246.34375 C 504.11003 246.34375 502.91211 246.70833 501.81836 247.4375 C 500.72461 248.16667 499.84722 249.23438 499.1875 250.64062 L 499.1875 247.07227 L 493.09375 247.07227 L 493.09375 275.40625 L 500.15234 275.40625 L 500.15234 263.94727 L 500.125 262.56836 C 500.125 258.61003 500.49957 255.95377 501.24609 254.59961 C 502.00998 253.24544 502.9375 252.56836 504.03125 252.56836 C 504.56944 252.56836 505.25651 252.77669 506.08984 253.19336 L 508.30273 247.07227 C 507.29579 246.58615 506.33225 246.34375 505.41211 246.34375 z M 527.3125 246.34375 C 525.94097 246.34375 524.59679 246.6122 523.27734 247.15039 C 521.97526 247.67122 520.51693 248.60873 518.90234 249.96289 L 518.90234 247.07227 L 511.81836 247.07227 L 511.81836 275.40625 L 518.90234 275.40625 L 518.90234 264.02539 C 518.90234 261.074 519.00651 259.1569 519.21484 258.27148 C 519.61415 256.5701 520.3253 255.24197 521.34961 254.28711 C 522.39128 253.31489 523.63325 252.82813 525.07422 252.82812 C 526.18533 252.82812 527.11285 253.12261 527.85938 253.71289 C 528.62326 254.28581 529.15408 255.12912 529.44922 256.24023 C 529.76172 257.35134 529.91797 259.59896 529.91797 262.98438 L 529.91797 275.40625 L 536.94922 275.40625 L 536.94922 256.68164 C 536.94922 253.41775 536.12391 250.95377 534.47461 249.28711 C 532.51281 247.32531 530.125 246.34375 527.3125 246.34375 z M 555.82812 246.34375 C 552.13021 246.34375 548.98915 247.74197 546.40234 250.53711 C 543.81554 253.33225 542.52148 256.91602 542.52148 261.29102 C 542.52148 265.50976 543.85764 269.0434 546.53125 271.89062 C 549.20486 274.72048 552.37392 276.13477 556.03711 276.13477 C 557.66905 276.13477 559.17947 275.84831 560.56836 275.27539 C 561.97461 274.68511 563.37283 273.73155 564.76172 272.41211 L 564.76172 275.40625 L 571.84375 275.40625 L 571.84375 247.07227 L 564.76172 247.07227 L 564.76172 250.19727 C 563.49436 248.91254 562.11415 247.949 560.62109 247.30664 C 559.12804 246.66428 557.52951 246.34375 555.82812 246.34375 z M 595.02148 246.34375 C 593.26801 246.34375 591.6454 246.67426 590.15234 247.33398 C 588.67665 247.99371 587.33051 248.99132 586.11523 250.32812 L 586.11523 247.07227 L 578.98047 247.07227 L 578.98047 275.40625 L 586.11523 275.40625 L 586.11523 262.80273 C 586.11523 260.07704 586.34961 258.07986 586.81836 256.8125 C 587.30447 255.54514 588.02561 254.56358 588.98047 253.86914 C 589.95269 253.15734 591.02843 252.80273 592.20898 252.80273 C 593.26801 252.80273 594.17144 253.07921 594.91797 253.63477 C 595.6645 254.19032 596.2194 255.04167 596.58398 256.1875 C 596.96593 257.31597 597.15625 259.14692 597.15625 261.68164 L 597.15625 275.40625 L 604.31836 275.40625 L 604.31836 262.61914 C 604.31836 259.91081 604.55273 257.94965 605.02148 256.73438 C 605.49023 255.50174 606.20139 254.53819 607.15625 253.84375 C 608.12847 253.14931 609.22222 252.80273 610.4375 252.80273 C 612.03472 252.80273 613.23264 253.37565 614.03125 254.52148 C 614.82986 255.64996 615.23047 257.81945 615.23047 261.03125 L 615.23047 275.40625 L 622.39062 275.40625 L 622.39062 258.79102 C 622.39063 255.38824 622.05208 252.93229 621.375 251.42188 C 620.71528 249.91146 619.62153 248.6875 618.09375 247.75 C 616.56597 246.8125 614.79514 246.34375 612.78125 246.34375 C 610.83681 246.34375 609.03993 246.77843 607.39062 247.64648 C 605.75868 248.51454 604.37847 249.7806 603.25 251.44727 C 602.38195 249.7806 601.23611 248.51454 599.8125 247.64648 C 598.38889 246.77843 596.79232 246.34375 595.02148 246.34375 z M 642.49609 246.34375 C 638.29471 246.34375 634.79514 247.77604 632 250.64062 C 629.22222 253.48785 627.83398 257.07357 627.83398 261.39648 C 627.83398 265.61523 629.23221 269.13086 632.02734 271.94336 C 634.82248 274.7385 638.44228 276.13477 642.88672 276.13477 C 645.7513 276.13477 648.22526 275.63194 650.30859 274.625 C 652.39193 273.6007 654.17882 272.03016 655.67188 269.91211 L 649.68359 267.09961 C 647.77387 268.95725 645.49023 269.88477 642.83398 269.88477 C 640.61176 269.88477 638.78081 269.29579 637.33984 268.11523 C 635.91623 266.91732 635.03885 265.31076 634.70898 263.29688 L 657.54688 263.29688 L 657.57422 261.94336 C 657.57422 257.25586 656.176 253.48785 653.38086 250.64062 C 650.58572 247.77604 646.9579 246.34375 642.49609 246.34375 z M 678.79688 246.34375 C 677.42535 246.34375 676.08116 246.6122 674.76172 247.15039 C 673.45964 247.67122 672.0013 248.60873 670.38672 249.96289 L 670.38672 247.07227 L 663.30273 247.07227 L 663.30273 275.40625 L 670.38672 275.40625 L 670.38672 264.02539 C 670.38672 261.074 670.49089 259.1569 670.69922 258.27148 C 671.09852 256.5701 671.80968 255.24197 672.83398 254.28711 C 673.87565 253.31489 675.11762 252.82813 676.55859 252.82812 C 677.6697 252.82812 678.59722 253.12261 679.34375 253.71289 C 680.10764 254.28581 680.63846 255.12912 680.93359 256.24023 C 681.24609 257.35134 681.40234 259.59896 681.40234 262.98438 L 681.40234 275.40625 L 688.43359 275.40625 L 688.43359 256.68164 C 688.43359 253.41775 687.60829 250.95377 685.95898 249.28711 C 683.99718 247.32531 681.60937 246.34375 678.79688 246.34375 z M 462.73047 247.07227 L 462.73047 258.86914 C 462.73047 263.40039 463.00694 266.52539 463.5625 268.24414 C 464.34375 270.72678 465.68989 272.66385 467.59961 274.05273 C 469.52669 275.44162 472.04471 276.13477 475.15234 276.13477 C 478.01692 276.13477 480.37674 275.54579 482.23438 274.36523 C 484.09201 273.16732 485.49826 271.4566 486.45312 269.23438 C 487.23437 267.41146 487.625 264.02604 487.625 259.07812 L 487.625 247.07227 L 480.49023 247.07227 L 480.49023 260.95312 C 480.49023 263.62673 480.34201 265.37153 480.04688 266.1875 C 479.64757 267.28125 479.03255 268.11458 478.19922 268.6875 C 477.38325 269.24306 476.38368 269.52148 475.20312 269.52148 C 474.02257 269.52148 473.02496 269.23503 472.20898 268.66211 C 471.41037 268.08919 470.82943 267.28993 470.46484 266.26562 C 470.10026 265.22396 469.91797 263.375 469.91797 260.71875 L 469.91797 247.07227 L 462.73047 247.07227 z M 642.83398 252.35938 C 644.6569 252.35937 646.25347 252.85417 647.625 253.84375 C 649.01389 254.83333 649.94336 256.11741 650.41211 257.69727 L 635.02148 257.69727 C 635.82009 255.94379 636.6875 254.71983 637.625 254.02539 C 639.11805 252.91428 640.85482 252.35938 642.83398 252.35938 z M 557.28711 252.90625 C 559.54405 252.90625 561.41103 253.66949 562.88672 255.19727 C 564.36241 256.72504 565.09961 258.72222 565.09961 261.1875 C 565.09961 263.70486 564.36241 265.74414 562.88672 267.30664 C 561.41103 268.85178 559.55208 269.625 557.3125 269.625 C 555.14236 269.625 553.31141 268.83572 551.81836 267.25586 C 550.34267 265.676 549.60547 263.66081 549.60547 261.21289 C 549.60547 258.78234 550.33464 256.79514 551.79297 255.25 C 553.2513 253.6875 555.08225 252.90625 557.28711 252.90625 z M 442.02734 253.03711 C 444.28429 253.03711 446.13325 253.80035 447.57422 255.32812 C 449.03255 256.83854 449.76172 258.80968 449.76172 261.24023 C 449.76172 263.67079 449.02257 265.65799 447.54688 267.20312 C 446.07118 268.74826 444.22222 269.52148 442 269.52148 C 439.77778 269.52148 437.9388 268.75629 436.48047 267.22852 C 435.0395 265.70074 434.31836 263.70551 434.31836 261.24023 C 434.31836 258.8444 435.04753 256.88129 436.50586 255.35352 C 437.98155 253.80838 439.82248 253.03711 442.02734 253.03711 z "
       transform="matrix(0.26458333,0,0,0.26458333,4.4444722,10.241247)" />
    <text
       xml:space="preserve"
       transform="matrix(0.26458333,0,0,0.26458333,4.4444722,10.241247)"
       id="text11207"
       style="fill:black;fill-opacity:1;line-height:1.25;stroke:none;font-family:sans-serif;font-style:normal;font-weight:normal;font-size:40px;white-space:pre;shape-inside:url(#rect11209)" />
  </g>
</svg>
