<?xml version="1.0" encoding="UTF-8" standalone="no"?>
<!-- Created with Inkscape (http://www.inkscape.org/) -->

<svg
   width="175.95062mm"
   height="98.146355mm"
   viewBox="0 0 175.95062 98.146355"
   version="1.1"
   id="svg5"
   inkscape:version="1.1.1 (3bf5ae0d25, 2021-09-20)"
   sodipodi:docname="flip-pgh-weekly-tournament-black.svg"
   xmlns:inkscape="http://www.inkscape.org/namespaces/inkscape"
   xmlns:sodipodi="http://sodipodi.sourceforge.net/DTD/sodipodi-0.dtd"
   xmlns="http://www.w3.org/2000/svg"
   xmlns:svg="http://www.w3.org/2000/svg">
  <sodipodi:namedview
     id="namedview7"
     pagecolor="#ffffff"
     bordercolor="#666666"
     borderopacity="1.0"
     inkscape:pageshadow="2"
     inkscape:pageopacity="0.0"
     inkscape:pagecheckerboard="0"
     inkscape:document-units="mm"
     showgrid="false"
     inkscape:zoom="1.332716"
     inkscape:cx="250.24085"
     inkscape:cy="213.09866"
     inkscape:window-width="1920"
     inkscape:window-height="986"
     inkscape:window-x="-11"
     inkscape:window-y="-11"
     inkscape:window-maximized="1"
     inkscape:current-layer="layer1" />
  <defs
     id="defs2">
    <inkscape:path-effect
       effect="spiro"
       id="path-effect3268"
       is_visible="true"
       lpeversion="1" />
    <inkscape:path-effect
       effect="spiro"
       id="path-effect3014"
       is_visible="true"
       lpeversion="1" />
    <inkscape:path-effect
       effect="spiro"
       id="path-effect1046"
       is_visible="true"
       lpeversion="1" />
    <inkscape:path-effect
       effect="spiro"
       id="path-effect114"
       is_visible="true"
       lpeversion="1" />
    <inkscape:path-effect
       effect="spiro"
       id="path-effect77"
       is_visible="true"
       lpeversion="1" />
  </defs>
  <g
     inkscape:label="Layer 1"
     inkscape:groupmode="layer"
     id="layer1"
     transform="translate(-4.4444722,-10.241247)">
    <path
       style="fill:none;stroke:#000000;stroke-width:2;stroke-linecap:butt;stroke-linejoin:miter;stroke-miterlimit:4;stroke-dasharray:none;stroke-opacity:1"
       d="m 6.8074118,83.533582 c 9.4929072,9.108074 22.3220762,14.659175 35.4599702,15.343306 7.923789,0.412616 15.825626,-0.878439 23.745876,-1.354177 7.92025,-0.475737 16.169803,-0.06515 23.266744,3.483109 3.295473,1.64764 6.26376,3.94651 8.683356,6.72507"
       id="path75"
       inkscape:path-effect="#path-effect77"
       inkscape:original-d="m 6.8074118,83.533582 c 5.2025902,2.99708 30.2578702,12.346806 35.4599702,15.343306 5.2021,2.996482 27.46476,0.41899 47.01262,2.128932 19.547848,1.70995 -5.339089,-1.49098 8.683356,6.72507"
       sodipodi:nodetypes="cssc" />
    <path
       style="fill:none;stroke:#000000;stroke-width:2.1069;stroke-linecap:butt;stroke-linejoin:miter;stroke-miterlimit:4;stroke-dasharray:none;stroke-opacity:1"
       d="m 63.218182,31.317012 c 6.424176,-2.274962 12.629104,-5.16859 18.501003,-8.627822 5.722129,-3.371 11.127807,-7.278895 16.122877,-11.655616"
       id="path1044"
       inkscape:path-effect="#path-effect1046"
       inkscape:original-d="m 63.218182,31.317012 c 6.129784,-3.741741 12.371981,-4.885768 18.501003,-8.627822 6.129047,-3.742063 6.925001,-0.335173 16.122877,-11.655616"
       sodipodi:nodetypes="csc" />
    <path
       style="fill:none;stroke:#000000;stroke-width:2;stroke-linecap:butt;stroke-linejoin:miter;stroke-miterlimit:4;stroke-dasharray:none;stroke-opacity:1"
       d="m 54.050264,37.097563 c 2.849788,-2.380225 6.762998,-3.435065 10.422994,-2.809609 3.659996,0.625456 7.00084,2.919939 8.898476,6.11145 1.868866,3.143125 2.307674,7.100457 1.172789,10.576652 -1.134885,3.476195 -3.824208,6.412276 -7.187679,7.847183"
       id="path3012"
       inkscape:path-effect="#path-effect3014"
       inkscape:original-d="m 54.050264,37.097563 c 6.86054,0.266018 12.46119,3.036532 19.32147,3.301841 6.8603,0.265304 -3.60004,11.448415 -6.01489,18.423835"
       sodipodi:nodetypes="csc" />
    <path
       style="fill:none;stroke:#000000;stroke-width:2;stroke-linecap:butt;stroke-linejoin:miter;stroke-miterlimit:4;stroke-dasharray:none;stroke-opacity:1"
       d="M 54.050264,37.097563 8.2868042,72.330519"
       id="path3129" />
    <path
       style="fill:none;stroke:#000000;stroke-width:2;stroke-linecap:butt;stroke-linejoin:miter;stroke-miterlimit:4;stroke-dasharray:none;stroke-opacity:1"
       d="m 67.356844,58.823239 -54.99316,21.90307"
       id="path3129-9"
       sodipodi:nodetypes="cc" />
    <path
       style="fill:none;stroke:#000000;stroke-width:2;stroke-linecap:butt;stroke-linejoin:miter;stroke-miterlimit:4;stroke-dasharray:none;stroke-opacity:1"
       d="m 8.2868042,72.330519 c -1.0279773,0.437284 -1.8883241,1.256354 -2.3755817,2.261608 -0.4872575,1.005254 -0.5972312,2.188038 -0.3036583,3.265892 0.3697567,1.357563 1.3871536,2.523161 2.6822866,3.073006 1.2951329,0.549844 2.8403462,0.472195 4.0738332,-0.204716"
       id="path3266"
       inkscape:path-effect="#path-effect3268"
       inkscape:original-d="m 8.2868042,72.330519 c -1.4599,2.5323 -1.21904,2.99591 -2.67924,5.5275 -1.46017,2.53159 3.74807,3.00764 6.7561198,2.86829"
       sodipodi:nodetypes="csc" />
    <path
       id="text5848"
       style="font-style:normal;font-variant:normal;font-weight:bold;font-stretch:normal;font-size:17.6389px;line-height:1.25;font-family:'Century Gothic';-inkscape-font-specification:'Century Gothic, Bold';font-variant-ligatures:normal;font-variant-caps:normal;font-variant-numeric:normal;font-variant-east-asian:normal;fill:#ffd200;fill-opacity:1;stroke:none;stroke-width:0.999999"
       d="M 245.60742 230.98828 C 237.64301 230.98828 231.1747 233.77821 226.20508 239.35547 C 222.01671 244.04297 219.92383 249.55382 219.92383 255.89062 C 219.92383 260.51302 221.05165 264.82139 223.30859 268.81445 C 225.58724 272.80751 228.66818 275.88845 232.55273 278.05859 C 236.45899 280.20703 240.89757 281.28125 245.86719 281.28125 C 250.51129 281.28125 254.55924 280.29514 258.00977 278.32031 C 261.46029 276.34548 264.26931 273.48091 266.43945 269.72656 C 268.60959 265.97222 269.69531 262.00087 269.69531 257.8125 L 269.63086 255.79297 L 245.54102 255.79297 L 245.54102 264.35547 L 259.4082 264.35547 C 258.08442 267.17665 256.33811 269.24848 254.16797 270.57227 C 252.01953 271.89605 249.37131 272.55859 246.22461 272.55859 C 241.3852 272.55859 237.31619 270.95204 234.01758 267.74023 C 230.71896 264.52843 229.07031 260.61068 229.07031 255.98828 C 229.07031 251.51779 230.65386 247.72071 233.82227 244.5957 C 237.01237 241.4707 240.96267 239.9082 245.67188 239.9082 C 251.07552 239.9082 255.80707 242.05664 259.86523 246.35352 L 266.27734 240.00586 C 263.34765 236.83745 260.35287 234.60287 257.29297 233.30078 C 253.66883 231.75998 249.77409 230.98828 245.60742 230.98828 z M 184.70117 232.19336 L 184.70117 280.07812 L 193.81641 280.07812 L 193.81641 259.79688 C 198.46051 259.79688 201.66211 259.54796 203.41992 259.04883 C 206.41472 258.18077 208.77951 256.63932 210.51562 254.42578 C 212.27344 252.21224 213.15234 249.43577 213.15234 246.09375 C 213.15234 243.07725 212.48025 240.49414 211.13477 238.3457 C 209.81098 236.17556 207.98807 234.61306 205.66602 233.6582 C 203.36567 232.68164 199.59918 232.19336 194.36914 232.19336 L 184.70117 232.19336 z M 278.0293 232.19336 L 278.0293 280.07812 L 287.27344 280.07812 L 287.27344 259.08203 L 303.28906 259.08203 L 303.28906 280.07812 L 312.50195 280.07812 L 312.50195 232.19336 L 303.28906 232.19336 L 303.28906 250.25977 L 287.27344 250.25977 L 287.27344 232.19336 L 278.0293 232.19336 z M 193.81641 241.11328 L 196.38867 241.11328 C 199.20985 241.11328 201.13997 241.4273 202.18164 242.05664 C 203.61393 242.903 204.33008 244.24913 204.33008 246.09375 C 204.33008 247.15712 204.06966 248.06858 203.54883 248.82812 C 203.0497 249.56597 202.35655 250.09635 201.4668 250.42188 C 200.57704 250.7474 198.99154 250.91016 196.71289 250.91016 L 193.81641 250.91016 L 193.81641 241.11328 z "
       transform="matrix(0.26458333,0,0,0.26458333,4.4444722,10.241247)" />
    <path
       id="text7304"
       style="font-style:normal;font-variant:normal;font-weight:bold;font-stretch:normal;font-size:14.1111px;line-height:1.25;font-family:'Century Gothic';-inkscape-font-specification:'Century Gothic, Bold';font-variant-ligatures:normal;font-variant-caps:normal;font-variant-numeric:normal;font-variant-east-asian:normal;fill:#ffd200;fill-opacity:1;stroke:none;stroke-width:0.999999"
       d="M 161.10938 162.0293 C 158.93934 161.94653 156.83363 162.44816 154.79297 163.5332 C 153.29073 164.33196 152.03234 165.3647 151.01562 166.63281 C 149.99891 167.90093 149.22456 169.4051 148.69336 171.14258 L 147.22656 168.38281 L 140.99609 171.69531 L 159.16211 205.86328 L 165.39453 202.55078 L 159.12305 190.75586 C 160.9688 191.26882 162.65116 191.45542 164.16992 191.31641 C 165.68053 191.16207 167.15478 190.7017 168.5957 189.93555 C 171.83011 188.21578 173.96398 185.47841 174.99609 181.72461 C 176.02006 177.95548 175.54113 174.20931 173.56055 170.48438 C 171.50661 166.62148 168.68219 164.06212 165.08594 162.80859 C 163.73734 162.33852 162.4114 162.07896 161.10938 162.0293 z M 128.38281 165.57227 C 127.80549 165.62362 127.24129 165.79642 126.68945 166.08984 C 125.58577 166.67668 124.85047 167.56817 124.48438 168.76562 C 124.11828 169.96308 124.22761 171.11311 124.81445 172.2168 C 125.42574 173.36647 126.33898 174.14035 127.55273 174.53711 C 128.77367 174.91039 129.94349 174.80007 131.0625 174.20508 C 132.15085 173.62639 132.87804 172.73847 133.24414 171.54102 C 133.60209 170.32823 133.48366 169.16198 132.88867 168.04297 C 132.28553 166.90863 131.37328 166.15453 130.15234 165.78125 C 129.54954 165.59054 128.96013 165.52091 128.38281 165.57227 z M 160.27734 169.08594 C 161.02698 169.10211 161.78112 169.24134 162.53906 169.50195 C 164.55209 170.18158 166.12846 171.59418 167.26953 173.74023 C 168.41876 175.90161 168.7055 178.03107 168.12891 180.12695 C 167.56765 182.21468 166.33018 183.76634 164.41406 184.78516 C 162.43663 185.83658 160.43265 186.02695 158.4043 185.35547 C 156.36779 184.66866 154.758 183.21488 153.57617 180.99219 C 152.41879 178.81548 152.13304 176.70581 152.71875 174.66406 C 153.30446 172.62232 154.58702 171.07486 156.56445 170.02344 C 157.79077 169.37139 159.02795 169.05899 160.27734 169.08594 z M 118.89062 171.06055 L 112.61328 174.39844 L 131.05078 209.07227 L 137.32812 205.73438 L 118.89062 171.06055 z M 135.31641 174.71484 L 129.01562 178.06445 L 142.31641 203.08203 L 148.61719 199.73242 L 135.31641 174.71484 z M 108.69727 177.57227 L 91.912109 186.49805 L 109.89648 220.32031 L 116.26562 216.93359 L 108.17188 201.71289 L 118.58789 196.17383 L 115.29883 189.98828 L 104.88281 195.52734 L 101.61914 189.38867 L 112.03516 183.84961 L 108.69727 177.57227 z "
       transform="matrix(0.26458333,0,0,0.26458333,4.4444722,10.241247)" />
    <circle
       style="opacity:1;fill:#000000;fill-opacity:1;fill-rule:nonzero;stroke-width:0.461538;stroke-miterlimit:4;stroke-dasharray:none"
       id="path10178"
       cx="64.01738"
       cy="46.267323"
       r="4" />
    <path
       id="text15464"
       style="font-style:normal;font-variant:normal;font-weight:bold;font-stretch:normal;font-size:14.1111px;line-height:1.25;font-family:'Century Gothic';-inkscape-font-specification:'Century Gothic, Bold';font-variant-ligatures:normal;font-variant-caps:normal;font-variant-numeric:normal;font-variant-east-asian:normal;fill:#000000;fill-opacity:1;stroke:none;stroke-width:0.999999"
       d="M 480.08789 137.98242 L 480.08789 177.25195 L 487.19727 177.25195 L 487.19727 164.20508 L 499.22852 177.25195 L 508.05664 177.25195 L 494.38477 162.51367 L 506.57227 148.91992 L 497.66602 148.91992 L 487.19727 160.61133 L 487.19727 137.98242 L 480.08789 137.98242 z M 510.21875 137.98242 L 510.21875 177.25195 L 517.32812 177.25195 L 517.32812 137.98242 L 510.21875 137.98242 z M 361.625 138.94531 L 370.29688 177.25195 L 377.22461 177.25195 L 384.15039 152.48633 L 391.20898 177.25195 L 398.21289 177.25195 L 406.83398 138.94531 L 399.64648 138.94531 L 394.17773 163.39844 L 387.25 138.94531 L 381.18164 138.94531 L 374.33398 163.39844 L 368.8125 138.94531 L 361.625 138.94531 z M 425.08789 148.18945 C 420.8865 148.18945 417.38889 149.62175 414.59375 152.48633 C 411.81597 155.33355 410.42773 158.91927 410.42773 163.24219 C 410.42773 167.46093 411.824 170.97656 414.61914 173.78906 C 417.41428 176.5842 421.03407 177.98242 425.47852 177.98242 C 428.3431 177.98242 430.81706 177.47765 432.90039 176.4707 C 434.98372 175.4464 436.77257 173.87587 438.26562 171.75781 L 432.27539 168.94531 C 430.36567 170.80295 428.08398 171.73242 425.42773 171.73242 C 423.20551 171.73242 421.37261 171.14149 419.93164 169.96094 C 418.50803 168.76302 417.6326 167.15647 417.30273 165.14258 L 440.14062 165.14258 L 440.16602 163.78906 C 440.16602 159.10157 438.76975 155.33355 435.97461 152.48633 C 433.17947 149.62175 429.54969 148.18945 425.08789 148.18945 z M 459.22852 148.18945 C 455.02713 148.18945 451.52951 149.62175 448.73438 152.48633 C 445.9566 155.33355 444.56836 158.91927 444.56836 163.24219 C 444.56836 167.46093 445.96463 170.97656 448.75977 173.78906 C 451.5549 176.5842 455.1747 177.98242 459.61914 177.98242 C 462.48372 177.98242 464.95768 177.47765 467.04102 176.4707 C 469.12435 175.4464 470.9132 173.87587 472.40625 171.75781 L 466.41602 168.94531 C 464.50629 170.80295 462.22461 171.73242 459.56836 171.73242 C 457.34614 171.73242 455.51324 171.14149 454.07227 169.96094 C 452.64866 168.76302 451.77322 167.15647 451.44336 165.14258 L 474.28125 165.14258 L 474.30664 163.78906 C 474.30664 159.10157 472.91037 155.33355 470.11523 152.48633 C 467.3201 149.62175 463.69032 148.18945 459.22852 148.18945 z M 520.60938 148.91992 L 531.39062 175.14258 L 525.55664 187.61719 L 532.90039 187.61719 L 550.66211 148.91992 L 543.36914 148.91992 L 535.24414 166.70508 L 527.875 148.91992 L 520.60938 148.91992 z M 425.42773 154.20508 C 427.25065 154.20508 428.84722 154.69987 430.21875 155.68945 C 431.60764 156.67904 432.53711 157.96506 433.00586 159.54492 L 417.61523 159.54492 C 418.41384 157.79145 419.28125 156.56749 420.21875 155.87305 C 421.7118 154.76194 423.44857 154.20508 425.42773 154.20508 z M 459.56836 154.20508 C 461.39127 154.20508 462.98785 154.69987 464.35938 155.68945 C 465.74826 156.67904 466.67773 157.96506 467.14648 159.54492 L 451.75586 159.54492 C 452.55447 157.79145 453.42188 156.56749 454.35938 155.87305 C 455.85243 154.76194 457.58919 154.20508 459.56836 154.20508 z M 653.70898 205.14258 L 653.70898 215.58594 L 650.0625 215.58594 L 650.0625 221.70508 L 653.70898 221.70508 L 653.70898 243.91992 L 660.79102 243.91992 L 660.79102 221.70508 L 665.00977 221.70508 L 665.00977 215.58594 L 660.79102 215.58594 L 660.79102 205.14258 L 653.70898 205.14258 z M 360.76562 205.61133 L 360.76562 212.79883 L 367.5625 212.79883 L 367.5625 243.91992 L 374.95898 243.91992 L 374.95898 212.79883 L 381.9375 212.79883 L 381.9375 205.61133 L 360.76562 205.61133 z M 399.46289 214.85742 C 395.76498 214.85742 392.4937 216.1415 389.64648 218.71094 C 386.39996 221.66232 384.77539 225.35222 384.77539 229.7793 C 384.77539 233.91124 386.20768 237.42687 389.07227 240.32617 C 391.95421 243.20811 395.42774 244.64844 399.49023 244.64844 C 402.25065 244.64844 404.77669 243.99739 407.06836 242.69531 C 409.36002 241.37587 411.16493 239.55295 412.48438 237.22656 C 413.82118 234.90018 414.49023 232.40017 414.49023 229.72656 C 414.49023 227.07031 413.82921 224.59635 412.50977 222.30469 C 411.19032 220.01302 409.35134 218.19813 406.99023 216.86133 C 404.64649 215.52452 402.1365 214.85742 399.46289 214.85742 z M 462.95312 214.85742 C 461.65104 214.85742 460.45312 215.22201 459.35938 215.95117 C 458.26563 216.68034 457.38824 217.74805 456.72852 219.1543 L 456.72852 215.58594 L 450.63477 215.58594 L 450.63477 243.91992 L 457.69336 243.91992 L 457.69336 232.46094 L 457.66602 231.08008 C 457.66602 227.12175 458.04058 224.46549 458.78711 223.11133 C 459.551 221.75716 460.47852 221.08008 461.57227 221.08008 C 462.11046 221.08008 462.79753 221.28841 463.63086 221.70508 L 465.84375 215.58594 C 464.83681 215.09983 463.87326 214.85742 462.95312 214.85742 z M 484.85352 214.85742 C 483.48199 214.85742 482.1378 215.12587 480.81836 215.66406 C 479.51628 216.1849 478.05794 217.1224 476.44336 218.47656 L 476.44336 215.58594 L 469.35938 215.58594 L 469.35938 243.91992 L 476.44336 243.91992 L 476.44336 232.53906 C 476.44336 229.58768 476.54753 227.66862 476.75586 226.7832 C 477.15516 225.08182 477.86632 223.75369 478.89062 222.79883 C 479.93229 221.82661 481.17426 221.3418 482.61523 221.3418 C 483.72634 221.3418 484.65386 221.63629 485.40039 222.22656 C 486.16428 222.79948 486.6951 223.64084 486.99023 224.75195 C 487.30273 225.86306 487.45898 228.11263 487.45898 231.49805 L 487.45898 243.91992 L 494.49023 243.91992 L 494.49023 225.19531 C 494.49023 221.93143 493.66493 219.46549 492.01562 217.79883 C 490.05382 215.83702 487.66601 214.85742 484.85352 214.85742 z M 513.36914 214.85742 C 509.67123 214.85742 506.53016 216.25369 503.94336 219.04883 C 501.35656 221.84396 500.0625 225.42969 500.0625 229.80469 C 500.0625 234.02343 501.39866 237.55708 504.07227 240.4043 C 506.74587 243.23416 509.91493 244.64844 513.57812 244.64844 C 515.21007 244.64844 516.72049 244.36198 518.10938 243.78906 C 519.51562 243.19879 520.91385 242.24327 522.30273 240.92383 L 522.30273 243.91992 L 529.38477 243.91992 L 529.38477 215.58594 L 522.30273 215.58594 L 522.30273 218.71094 C 521.03537 217.42622 519.65516 216.46267 518.16211 215.82031 C 516.66905 215.17795 515.07053 214.85742 513.36914 214.85742 z M 552.5625 214.85742 C 550.80903 214.85742 549.18641 215.18598 547.69336 215.8457 C 546.21767 216.50542 544.87153 217.50499 543.65625 218.8418 L 543.65625 215.58594 L 536.52148 215.58594 L 536.52148 243.91992 L 543.65625 243.91992 L 543.65625 231.31445 C 543.65625 228.58876 543.89063 226.59353 544.35938 225.32617 C 544.84549 224.05881 545.56662 223.07726 546.52148 222.38281 C 547.49371 221.67101 548.56945 221.31445 549.75 221.31445 C 550.80903 221.31445 551.71246 221.59288 552.45898 222.14844 C 553.20551 222.70399 553.76042 223.55534 554.125 224.70117 C 554.50694 225.82964 554.69727 227.66059 554.69727 230.19531 L 554.69727 243.91992 L 561.85938 243.91992 L 561.85938 231.13281 C 561.85938 228.42448 562.09375 226.46332 562.5625 225.24805 C 563.03125 224.01541 563.74241 223.05187 564.69727 222.35742 C 565.66949 221.66298 566.76324 221.31445 567.97852 221.31445 C 569.57574 221.31445 570.77366 221.88737 571.57227 223.0332 C 572.37088 224.16167 572.77148 226.33312 572.77148 229.54492 L 572.77148 243.91992 L 579.93164 243.91992 L 579.93164 227.30469 C 579.93164 223.90191 579.5931 221.44596 578.91602 219.93555 C 578.25629 218.42513 577.16254 217.20117 575.63477 216.26367 C 574.10699 215.32617 572.33615 214.85742 570.32227 214.85742 C 568.37782 214.85742 566.58094 215.29015 564.93164 216.1582 C 563.2997 217.02626 561.91949 218.29427 560.79102 219.96094 C 559.92296 218.29427 558.77713 217.02626 557.35352 216.1582 C 555.92991 215.29015 554.33333 214.85742 552.5625 214.85742 z M 600.03711 214.85742 C 595.83572 214.85742 592.33615 216.28972 589.54102 219.1543 C 586.76324 222.00152 585.375 225.58529 585.375 229.9082 C 585.375 234.12695 586.77322 237.64258 589.56836 240.45508 C 592.3635 243.25021 595.98329 244.64844 600.42773 244.64844 C 603.29232 244.64844 605.76628 244.14562 607.84961 243.13867 C 609.93294 242.11437 611.71984 240.54188 613.21289 238.42383 L 607.22461 235.61133 C 605.31489 237.46897 603.03125 238.39844 600.375 238.39844 C 598.15278 238.39844 596.32183 237.80751 594.88086 236.62695 C 593.45725 235.42904 592.57986 233.82443 592.25 231.81055 L 615.08789 231.81055 L 615.11523 230.45508 C 615.11523 225.76758 613.71701 222.00152 610.92188 219.1543 C 608.12674 216.28972 604.49891 214.85742 600.03711 214.85742 z M 636.33789 214.85742 C 634.96636 214.85742 633.62218 215.12587 632.30273 215.66406 C 631.00065 216.1849 629.54232 217.1224 627.92773 218.47656 L 627.92773 215.58594 L 620.84375 215.58594 L 620.84375 243.91992 L 627.92773 243.91992 L 627.92773 232.53906 C 627.92773 229.58768 628.0319 227.66862 628.24023 226.7832 C 628.63954 225.08182 629.3507 223.75369 630.375 222.79883 C 631.41667 221.82661 632.65864 221.3418 634.09961 221.3418 C 635.21072 221.3418 636.13824 221.63629 636.88477 222.22656 C 637.64865 222.79948 638.17947 223.64084 638.47461 224.75195 C 638.78711 225.86306 638.94336 228.11263 638.94336 231.49805 L 638.94336 243.91992 L 645.97461 243.91992 L 645.97461 225.19531 C 645.97461 221.93143 645.1493 219.46549 643.5 217.79883 C 641.5382 215.83702 639.15039 214.85742 636.33789 214.85742 z M 420.27148 215.58594 L 420.27148 227.38281 C 420.27148 231.91406 420.54796 235.03906 421.10352 236.75781 C 421.88477 239.24045 423.2309 241.17557 425.14062 242.56445 C 427.06771 243.95334 429.58572 244.64844 432.69336 244.64844 C 435.55794 244.64844 437.91775 244.05751 439.77539 242.87695 C 441.63303 241.67904 443.03928 239.97027 443.99414 237.74805 C 444.77539 235.92513 445.16602 232.53971 445.16602 227.5918 L 445.16602 215.58594 L 438.03125 215.58594 L 438.03125 229.4668 C 438.03125 232.14041 437.88303 233.8852 437.58789 234.70117 C 437.18859 235.79492 436.57357 236.62826 435.74023 237.20117 C 434.92426 237.75673 433.9247 238.0332 432.74414 238.0332 C 431.56359 238.0332 430.56597 237.74674 429.75 237.17383 C 428.95139 236.60091 428.37044 235.8036 428.00586 234.7793 C 427.64128 233.73763 427.45898 231.88867 427.45898 229.23242 L 427.45898 215.58594 L 420.27148 215.58594 z M 600.375 220.87305 C 602.19792 220.87305 603.79449 221.36784 605.16602 222.35742 C 606.5549 223.347 607.48438 224.63108 607.95312 226.21094 L 592.5625 226.21094 C 593.36111 224.45747 594.22852 223.23351 595.16602 222.53906 C 596.65907 221.42795 598.39583 220.87305 600.375 220.87305 z M 514.82812 221.41992 C 517.08507 221.41992 518.95204 222.18316 520.42773 223.71094 C 521.90343 225.23871 522.64062 227.2359 522.64062 229.70117 C 522.64063 232.21853 521.90343 234.25781 520.42773 235.82031 C 518.95204 237.36545 517.0931 238.13867 514.85352 238.13867 C 512.68338 238.13867 510.85243 237.34744 509.35938 235.76758 C 507.88368 234.18772 507.14648 232.17448 507.14648 229.72656 C 507.14648 227.29601 507.87565 225.30881 509.33398 223.76367 C 510.79232 222.20117 512.62327 221.41992 514.82812 221.41992 z M 399.56836 221.54883 C 401.8253 221.54883 403.67426 222.31402 405.11523 223.8418 C 406.57357 225.35221 407.30273 227.3214 407.30273 229.75195 C 407.30273 232.18251 406.56358 234.17166 405.08789 235.7168 C 403.6122 237.26193 401.76324 238.0332 399.54102 238.0332 C 397.3188 238.0332 395.47982 237.26996 394.02148 235.74219 C 392.58051 234.21441 391.85937 232.21723 391.85938 229.75195 C 391.85938 227.35612 392.58854 225.39496 394.04688 223.86719 C 395.52257 222.32205 397.3635 221.54883 399.56836 221.54883 z "
       transform="matrix(0.26458333,0,0,0.26458333,4.4444722,10.241247)" />
  </g>
</svg>
