<?xml version="1.0" encoding="UTF-8" standalone="no"?>
<!-- Created with Inkscape (http://www.inkscape.org/) -->

<svg
   width="94.273026mm"
   height="98.101151mm"
   viewBox="0 0 94.273026 98.101151"
   version="1.1"
   id="svg5"
   inkscape:version="1.1.1 (3bf5ae0d25, 2021-09-20)"
   sodipodi:docname="flip-pgh-logo-black.svg"
   xmlns:inkscape="http://www.inkscape.org/namespaces/inkscape"
   xmlns:sodipodi="http://sodipodi.sourceforge.net/DTD/sodipodi-0.dtd"
   xmlns="http://www.w3.org/2000/svg"
   xmlns:svg="http://www.w3.org/2000/svg">
  <sodipodi:namedview
     id="namedview7"
     pagecolor="#ffffff"
     bordercolor="#666666"
     borderopacity="1.0"
     inkscape:pageshadow="2"
     inkscape:pageopacity="0.0"
     inkscape:pagecheckerboard="0"
     inkscape:document-units="mm"
     showgrid="false"
     inkscape:zoom="0.66635802"
     inkscape:cx="357.9157"
     inkscape:cy="360.16675"
     inkscape:window-width="1920"
     inkscape:window-height="986"
     inkscape:window-x="-11"
     inkscape:window-y="-11"
     inkscape:window-maximized="1"
     inkscape:current-layer="layer1" />
  <defs
     id="defs2">
    <inkscape:path-effect
       effect="spiro"
       id="path-effect3268"
       is_visible="true"
       lpeversion="1" />
    <inkscape:path-effect
       effect="spiro"
       id="path-effect3014"
       is_visible="true"
       lpeversion="1" />
    <inkscape:path-effect
       effect="spiro"
       id="path-effect1046"
       is_visible="true"
       lpeversion="1" />
    <inkscape:path-effect
       effect="spiro"
       id="path-effect114"
       is_visible="true"
       lpeversion="1" />
    <inkscape:path-effect
       effect="spiro"
       id="path-effect77"
       is_visible="true"
       lpeversion="1" />
  </defs>
  <g
     inkscape:label="Layer 1"
     inkscape:groupmode="layer"
     id="layer1"
     transform="translate(-4.4444722,-10.286448)">
    <path
       style="fill:none;stroke:#000000;stroke-width:2;stroke-linecap:butt;stroke-linejoin:miter;stroke-miterlimit:4;stroke-dasharray:none;stroke-opacity:1"
       d="m 6.8074118,83.533582 c 9.4929072,9.108074 22.3220762,14.659175 35.4599702,15.343306 7.923789,0.412616 15.825626,-0.878439 23.745876,-1.354177 7.92025,-0.475737 16.169803,-0.06515 23.266744,3.483109 3.295473,1.64764 6.26376,3.94651 8.683356,6.72507"
       id="path75"
       inkscape:path-effect="#path-effect77"
       inkscape:original-d="m 6.8074118,83.533582 c 5.2025902,2.99708 30.2578702,12.346806 35.4599702,15.343306 5.2021,2.996482 27.46476,0.41899 47.01262,2.128932 19.547848,1.70995 -5.339089,-1.49098 8.683356,6.72507"
       sodipodi:nodetypes="cssc" />
    <path
       style="fill:none;stroke:#000000;stroke-width:2.1069;stroke-linecap:butt;stroke-linejoin:miter;stroke-miterlimit:4;stroke-dasharray:none;stroke-opacity:1"
       d="m 63.218182,31.317012 c 6.424176,-2.274962 12.629104,-5.16859 18.501003,-8.627822 5.722129,-3.371 11.127807,-7.278895 16.122877,-11.655616"
       id="path1044"
       inkscape:path-effect="#path-effect1046"
       inkscape:original-d="m 63.218182,31.317012 c 6.129784,-3.741741 12.371981,-4.885768 18.501003,-8.627822 6.129047,-3.742063 6.925001,-0.335173 16.122877,-11.655616"
       sodipodi:nodetypes="csc" />
    <path
       style="fill:none;stroke:#000000;stroke-width:2;stroke-linecap:butt;stroke-linejoin:miter;stroke-miterlimit:4;stroke-dasharray:none;stroke-opacity:1"
       d="m 54.050264,37.097563 c 2.849788,-2.380225 6.762998,-3.435065 10.422994,-2.809609 3.659996,0.625456 7.00084,2.919939 8.898476,6.11145 1.868866,3.143125 2.307674,7.100457 1.172789,10.576652 -1.134885,3.476195 -3.824208,6.412276 -7.187679,7.847183"
       id="path3012"
       inkscape:path-effect="#path-effect3014"
       inkscape:original-d="m 54.050264,37.097563 c 6.86054,0.266018 12.46119,3.036532 19.32147,3.301841 6.8603,0.265304 -3.60004,11.448415 -6.01489,18.423835"
       sodipodi:nodetypes="csc" />
    <path
       style="fill:none;stroke:#000000;stroke-width:2;stroke-linecap:butt;stroke-linejoin:miter;stroke-miterlimit:4;stroke-dasharray:none;stroke-opacity:1"
       d="M 54.050264,37.097563 8.2868042,72.330519"
       id="path3129" />
    <path
       style="fill:none;stroke:#000000;stroke-width:2;stroke-linecap:butt;stroke-linejoin:miter;stroke-miterlimit:4;stroke-dasharray:none;stroke-opacity:1"
       d="m 67.356844,58.823239 -54.99316,21.90307"
       id="path3129-9"
       sodipodi:nodetypes="cc" />
    <path
       style="fill:none;stroke:#000000;stroke-width:2;stroke-linecap:butt;stroke-linejoin:miter;stroke-miterlimit:4;stroke-dasharray:none;stroke-opacity:1"
       d="m 8.2868042,72.330519 c -1.0279773,0.437284 -1.8883241,1.256354 -2.3755817,2.261608 -0.4872575,1.005254 -0.5972312,2.188038 -0.3036583,3.265892 0.3697567,1.357563 1.3871536,2.523161 2.6822866,3.073006 1.2951329,0.549844 2.8403462,0.472195 4.0738332,-0.204716"
       id="path3266"
       inkscape:path-effect="#path-effect3268"
       inkscape:original-d="m 8.2868042,72.330519 c -1.4599,2.5323 -1.21904,2.99591 -2.67924,5.5275 -1.46017,2.53159 3.74807,3.00764 6.7561198,2.86829"
       sodipodi:nodetypes="csc" />
    <path
       id="text5848"
       style="font-style:normal;font-variant:normal;font-weight:bold;font-stretch:normal;font-size:17.6389px;line-height:1.25;font-family:'Century Gothic';-inkscape-font-specification:'Century Gothic, Bold';font-variant-ligatures:normal;font-variant-caps:normal;font-variant-numeric:normal;font-variant-east-asian:normal;fill:#ffd200;fill-opacity:1;stroke:none;stroke-width:0.999999"
       d="M 245.60742 230.81836 C 237.64301 230.81836 231.1747 233.60633 226.20508 239.18359 C 222.01671 243.8711 219.92383 249.38389 219.92383 255.7207 C 219.92383 260.3431 221.05165 264.64952 223.30859 268.64258 C 225.58724 272.63564 228.66818 275.71853 232.55273 277.88867 C 236.45899 280.03711 240.89757 281.11133 245.86719 281.11133 C 250.51129 281.11133 254.55924 280.12327 258.00977 278.14844 C 261.46029 276.17361 264.26931 273.30903 266.43945 269.55469 C 268.60959 265.80034 269.69531 261.829 269.69531 257.64062 L 269.63086 255.62305 L 245.54102 255.62305 L 245.54102 264.18359 L 259.4082 264.18359 C 258.08442 267.00478 256.33811 269.07661 254.16797 270.40039 C 252.01953 271.72418 249.37131 272.38672 246.22461 272.38672 C 241.3852 272.38672 237.31619 270.78017 234.01758 267.56836 C 230.71896 264.35655 229.07031 260.44076 229.07031 255.81836 C 229.07031 251.34787 230.65386 247.54883 233.82227 244.42383 C 237.01237 241.29883 240.96267 239.73633 245.67188 239.73633 C 251.07552 239.73633 255.80707 241.88476 259.86523 246.18164 L 266.27734 239.83398 C 263.34765 236.66558 260.35287 234.43099 257.29297 233.12891 C 253.66883 231.58811 249.77409 230.81836 245.60742 230.81836 z M 184.70117 232.02148 L 184.70117 279.90625 L 193.81641 279.90625 L 193.81641 259.62695 C 198.46051 259.62695 201.66211 259.37609 203.41992 258.87695 C 206.41472 258.0089 208.77951 256.4694 210.51562 254.25586 C 212.27344 252.04232 213.15234 249.26389 213.15234 245.92188 C 213.15234 242.90538 212.48025 240.32227 211.13477 238.17383 C 209.81098 236.00369 207.98807 234.44119 205.66602 233.48633 C 203.36567 232.50976 199.59918 232.02148 194.36914 232.02148 L 184.70117 232.02148 z M 278.0293 232.02148 L 278.0293 279.90625 L 287.27344 279.90625 L 287.27344 258.91016 L 303.28906 258.91016 L 303.28906 279.90625 L 312.50195 279.90625 L 312.50195 232.02148 L 303.28906 232.02148 L 303.28906 250.08789 L 287.27344 250.08789 L 287.27344 232.02148 L 278.0293 232.02148 z M 193.81641 240.94141 L 196.38867 240.94141 C 199.20985 240.94141 201.13997 241.25542 202.18164 241.88477 C 203.61393 242.73112 204.33008 244.07726 204.33008 245.92188 C 204.33008 246.98524 204.06966 247.8967 203.54883 248.65625 C 203.0497 249.3941 202.35655 249.92643 201.4668 250.25195 C 200.57704 250.57747 198.99154 250.74023 196.71289 250.74023 L 193.81641 250.74023 L 193.81641 240.94141 z "
       transform="matrix(0.26458333,0,0,0.26458333,4.4444722,10.286448)" />
    <path
       id="text7304"
       style="font-style:normal;font-variant:normal;font-weight:bold;font-stretch:normal;font-size:14.1111px;line-height:1.25;font-family:'Century Gothic';-inkscape-font-specification:'Century Gothic, Bold';font-variant-ligatures:normal;font-variant-caps:normal;font-variant-numeric:normal;font-variant-east-asian:normal;fill:#ffd200;fill-opacity:1;stroke:none;stroke-width:0.264583"
       d="m 47.269766,53.310028 c -0.574156,-0.0219 -1.130774,0.110826 -1.670701,0.39791 -0.397465,0.211336 -0.730933,0.484582 -0.99994,0.820105 -0.269004,0.335521 -0.473884,0.733499 -0.614431,1.193207 l -0.388091,-0.730186 -1.648478,0.876432 4.806942,9.040275 1.648478,-0.876432 -1.659329,-3.120742 c 0.488355,0.135721 0.933479,0.185092 1.335318,0.148312 0.399682,-0.04084 0.789744,-0.162642 1.170987,-0.365352 0.855771,-0.45502 1.420358,-1.179285 1.693437,-2.172478 0.270925,-0.997249 0.144208,-1.988423 -0.37982,-2.973977 -0.543438,-1.022057 -1.290733,-1.699221 -2.242241,-2.030884 -0.356817,-0.124373 -0.707638,-0.19305 -1.052131,-0.20619 z m -8.658905,0.937411 c -0.152749,0.01359 -0.302027,0.05931 -0.448035,0.136943 -0.292015,0.155268 -0.486563,0.391142 -0.583425,0.707967 -0.09686,0.316825 -0.06794,0.621107 0.08733,0.913122 0.161737,0.304184 0.403365,0.508942 0.724503,0.613915 0.32304,0.09876 0.632555,0.06958 0.928626,-0.08785 0.28796,-0.153112 0.480362,-0.388041 0.577226,-0.704866 0.09471,-0.320881 0.06337,-0.629452 -0.09405,-0.925526 -0.159581,-0.300127 -0.400947,-0.49965 -0.723988,-0.598411 -0.159491,-0.05046 -0.315439,-0.06888 -0.468188,-0.0553 z m 8.438761,0.929659 c 0.198342,0.0043 0.397875,0.04112 0.598413,0.110072 0.532615,0.179818 0.950212,0.553569 1.25212,1.121378 0.304067,0.571865 0.379418,1.135285 0.226862,1.689819 -0.1485,0.552379 -0.475914,0.96292 -0.982888,1.232483 -0.523195,0.278188 -1.053415,0.328556 -1.590082,0.150894 -0.538827,-0.181716 -0.964234,-0.566362 -1.276927,-1.154451 -0.306221,-0.575921 -0.381828,-1.134105 -0.226859,-1.674315 0.154972,-0.540213 0.493797,-0.949645 1.016992,-1.227833 0.324464,-0.172519 0.651801,-0.255178 0.982369,-0.248047 z m -10.949718,0.522449 -1.660882,0.88315 4.877739,9.174117 1.66088,-0.88315 z m 4.345472,0.966866 -1.667084,0.886251 3.519683,6.619235 1.666566,-0.886251 z m -7.042981,0.756026 -4.441073,2.361613 4.758364,8.948809 1.685169,-0.89607 -2.141469,-4.027144 2.755903,-1.465545 -0.869715,-1.636591 -2.755903,1.465543 -0.864031,-1.62419 2.755905,-1.465545 z" />
    <circle
       style="opacity:1;fill-rule:nonzero;stroke-width:0.461538;stroke-miterlimit:4;stroke-dasharray:none;fill:#000000;fill-opacity:1"
       id="path10178"
       cx="64.01738"
       cy="46.267323"
       r="4" />
  </g>
</svg>
