<?xml version="1.0" encoding="UTF-8" standalone="no"?>
<!-- Created with Inkscape (http://www.inkscape.org/) -->

<svg
   width="145.08641mm"
   height="98.146362mm"
   viewBox="0 0 145.08641 98.146362"
   version="1.1"
   id="svg1000"
   sodipodi:docname="flip-pgh-com-logo-black.svg"
   inkscape:version="1.1.1 (3bf5ae0d25, 2021-09-20)"
   xmlns:inkscape="http://www.inkscape.org/namespaces/inkscape"
   xmlns:sodipodi="http://sodipodi.sourceforge.net/DTD/sodipodi-0.dtd"
   xmlns="http://www.w3.org/2000/svg"
   xmlns:svg="http://www.w3.org/2000/svg">
  <sodipodi:namedview
     id="namedview1002"
     pagecolor="#ffffff"
     bordercolor="#666666"
     borderopacity="1.0"
     inkscape:pageshadow="2"
     inkscape:pageopacity="0.0"
     inkscape:pagecheckerboard="0"
     inkscape:document-units="mm"
     showgrid="false"
     inkscape:zoom="0.69664703"
     inkscape:cx="388.28846"
     inkscape:cy="350.24911"
     inkscape:window-width="1920"
     inkscape:window-height="986"
     inkscape:window-x="-11"
     inkscape:window-y="-11"
     inkscape:window-maximized="1"
     inkscape:current-layer="layer1" />
  <defs
     id="defs997">
    <inkscape:path-effect
       effect="spiro"
       id="path-effect1046"
       is_visible="true"
       lpeversion="1" />
    <inkscape:path-effect
       effect="spiro"
       id="path-effect3014"
       is_visible="true"
       lpeversion="1" />
    <inkscape:path-effect
       effect="spiro"
       id="path-effect3268"
       is_visible="true"
       lpeversion="1" />
    <inkscape:path-effect
       effect="spiro"
       id="path-effect77"
       is_visible="true"
       lpeversion="1" />
  </defs>
  <g
     inkscape:label="Layer 1"
     inkscape:groupmode="layer"
     id="layer1"
     transform="translate(-10.592387,-45.116081)">
    <path
       style="fill:none;stroke:#000000;stroke-width:2;stroke-linecap:butt;stroke-linejoin:miter;stroke-miterlimit:4;stroke-dasharray:none;stroke-opacity:1"
       d="m 12.955327,118.40842 c 9.492905,9.10808 22.322075,14.65918 35.45997,15.34331 7.923789,0.41262 15.825627,-0.87844 23.745877,-1.35418 7.920251,-0.47574 16.169804,-0.0651 23.266745,3.48311 3.295472,1.64764 6.263761,3.94651 8.683351,6.72507"
       id="path75"
       sodipodi:nodetypes="cssc"
       inkscape:original-d="m 12.955327,118.40842 c 5.20259,2.99708 30.25787,12.34681 35.45997,15.34331 5.2021,2.99648 27.46476,0.41899 47.012622,2.12893 19.547851,1.70995 -5.33909,-1.49098 8.683351,6.72507"
       inkscape:path-effect="#path-effect77" />
    <path
       style="fill:none;stroke:#000000;stroke-width:2.1069;stroke-linecap:butt;stroke-linejoin:miter;stroke-miterlimit:4;stroke-dasharray:none;stroke-opacity:1"
       d="m 69.366097,66.191846 c 6.424176,-2.274963 12.629103,-5.16859 18.501002,-8.627822 5.72213,-3.371001 11.12781,-7.278896 16.122881,-11.655616"
       id="path1044"
       sodipodi:nodetypes="csc"
       inkscape:original-d="m 69.366097,66.191846 c 6.129784,-3.741741 12.371981,-4.885768 18.501002,-8.627822 6.12905,-3.742063 6.925,-0.335173 16.122881,-11.655616"
       inkscape:path-effect="#path-effect1046" />
    <path
       style="fill:none;stroke:#000000;stroke-width:2;stroke-linecap:butt;stroke-linejoin:miter;stroke-miterlimit:4;stroke-dasharray:none;stroke-opacity:1"
       d="m 60.198179,71.972397 c 2.849788,-2.380225 6.762997,-3.435065 10.422993,-2.809609 3.659996,0.625455 7.000841,2.919938 8.898477,6.111448 1.868867,3.143126 2.307676,7.100459 1.172791,10.576655 -1.134885,3.476196 -3.824209,6.412278 -7.187681,7.847185"
       id="path3012"
       sodipodi:nodetypes="csc"
       inkscape:original-d="m 60.198179,71.972397 c 6.86054,0.266018 12.46119,3.036529 19.32147,3.301839 6.8603,0.26531 -3.60004,11.44842 -6.01489,18.42384"
       inkscape:path-effect="#path-effect3014" />
    <path
       style="fill:none;stroke:#000000;stroke-width:2;stroke-linecap:butt;stroke-linejoin:miter;stroke-miterlimit:4;stroke-dasharray:none;stroke-opacity:1"
       d="M 60.198179,71.972397 14.434719,107.20536"
       id="path3129" />
    <path
       style="fill:none;stroke:#000000;stroke-width:2.00005;stroke-linecap:butt;stroke-linejoin:miter;stroke-miterlimit:4;stroke-dasharray:none;stroke-opacity:1"
       d="M 73.472226,93.684566 18.543935,115.61466"
       id="path3129-9"
       sodipodi:nodetypes="cc" />
    <path
       style="fill:none;stroke:#000000;stroke-width:2;stroke-linecap:butt;stroke-linejoin:miter;stroke-miterlimit:4;stroke-dasharray:none;stroke-opacity:1"
       d="m 14.434719,107.20536 c -1.027977,0.43728 -1.888324,1.25635 -2.375582,2.26161 -0.487257,1.00525 -0.597231,2.18804 -0.303658,3.26589 0.369757,1.35756 1.387154,2.52316 2.682287,3.07301 1.295133,0.54984 2.840346,0.47219 4.073833,-0.20472"
       id="path3266"
       sodipodi:nodetypes="csc"
       inkscape:original-d="m 14.434719,107.20536 c -1.4599,2.5323 -1.21904,2.99591 -2.67924,5.5275 -1.46017,2.53159 3.74807,3.00764 6.75612,2.86829"
       inkscape:path-effect="#path-effect3268" />
    <circle
       style="fill:#000000;fill-opacity:1;fill-rule:nonzero;stroke-width:0.461538;stroke-miterlimit:4;stroke-dasharray:none"
       id="path10178"
       cx="70.165298"
       cy="81.142151"
       r="4" />
    <g
       aria-label="flippgh.com"
       id="text2191"
       style="font-size:19.7556px;line-height:1.25;letter-spacing:0.529167px;stroke-width:0.264583">
      <path
         d="m 64.72808,107.72258 v -2.05466 q 0,-1.24437 0.800642,-1.94855 0.810288,-0.71382 2.247585,-0.71382 h 1.11897 v 2.76848 h -0.704179 q -0.299035,0 -0.491961,0.22187 -0.18328,0.21221 -0.18328,0.56913 v 1.15755 h 1.37942 v 2.3344 h -1.37942 v 6.54019 H 64.72808 v -6.54019 h -0.983922 v -2.3344 z"
         style="font-family:'Tw Cen MT Condensed Extra Bold';-inkscape-font-specification:'Tw Cen MT Condensed Extra Bold, '"
         id="path877" />
      <path
         d="m 70.823156,103.00555 h 2.80707 v 13.59162 h -2.80707 z"
         style="font-family:'Tw Cen MT Condensed Extra Bold';-inkscape-font-specification:'Tw Cen MT Condensed Extra Bold, '"
         id="path879" />
      <path
         d="m 76.368393,105.06021 q 0,-0.61737 0.434083,-1.05145 0.434083,-0.43408 1.041799,-0.43408 0.617363,0 1.051446,0.43408 0.434083,0.43408 0.434083,1.05145 0,0.60771 -0.434083,1.05144 -0.434083,0.43408 -1.051446,0.43408 -0.59807,0 -1.041799,-0.43408 -0.434083,-0.44373 -0.434083,-1.05144 z m 0.07717,2.66237 h 2.80707 v 8.87459 h -2.80707 z"
         style="font-family:'Tw Cen MT Condensed Extra Bold';-inkscape-font-specification:'Tw Cen MT Condensed Extra Bold, '"
         id="path881" />
      <path
         d="m 84.788225,107.72258 v 1.12862 h 0.04823 q 0.93569,-1.37942 2.112538,-1.37942 1.263664,0 2.02572,1.2926 0.771704,1.28296 0.771704,3.46302 0,2.10289 -0.790996,3.39549 -0.78135,1.29261 -2.006428,1.29261 -1.292603,0 -2.112538,-1.48553 h -0.04823 v 4.82314 h -2.797424 v -12.53053 z m 2.160769,4.40836 q 0,-2.18971 -1.109324,-2.18971 -1.051445,0 -1.051445,2.209 0,2.27652 1.051445,2.27652 1.109324,0 1.109324,-2.29581 z"
         style="font-family:'Tw Cen MT Condensed Extra Bold';-inkscape-font-specification:'Tw Cen MT Condensed Extra Bold, '"
         id="path883" />
      <path
         d="m 94.722524,107.72258 v 1.12862 h 0.04823 q 0.93569,-1.37942 2.112537,-1.37942 1.263664,0 2.025721,1.2926 0.771703,1.28296 0.771703,3.46302 0,2.10289 -0.790996,3.39549 -0.781349,1.29261 -2.006428,1.29261 -1.292603,0 -2.112537,-1.48553 h -0.04823 v 4.82314 h -2.797423 v -12.53053 z m 2.160769,4.40836 q 0,-2.18971 -1.109323,-2.18971 -1.051446,0 -1.051446,2.209 0,2.27652 1.051446,2.27652 1.109323,0 1.109323,-2.29581 z"
         style="font-family:'Tw Cen MT Condensed Extra Bold';-inkscape-font-specification:'Tw Cen MT Condensed Extra Bold, '"
         id="path885" />
      <path
         d="m 106.31599,116.63575 v -1.26366 q -0.81994,1.20579 -1.94855,1.20579 -1.42766,0 -2.21865,-1.1865 -0.791,-1.19614 -0.791,-3.3762 0,-2.13183 0.77171,-3.34726 0.7717,-1.21543 2.11253,-1.21543 1.19614,0 2.01608,1.20578 h 0.0386 v -0.93569 h 2.80707 v 8.21864 q 0,1.12862 -0.40514,2.14148 -0.3955,1.01286 -1.40836,1.59163 -1.01286,0.57878 -2.21865,0.57878 -1.20578,0 -2.26687,-0.6463 -1.0611,-0.6463 -1.37942,-2.16077 h 2.50803 q 0.43409,0.67524 1.08039,0.67524 0.54984,0 0.92604,-0.43408 0.37621,-0.42444 0.37621,-1.05145 z m 0,-4.65915 q 0,-2.15113 -1.08039,-2.15113 -0.53054,0 -0.83923,0.5209 -0.30868,0.5209 -0.30868,1.44695 0,2.43086 1.12862,2.43086 1.09968,0 1.09968,-2.24758 z"
         style="font-family:'Tw Cen MT Condensed Extra Bold';-inkscape-font-specification:'Tw Cen MT Condensed Extra Bold, '"
         id="path887" />
      <path
         d="m 111.7744,103.00555 h 2.79743 v 5.86494 h 0.0482 q 1.03215,-1.4373 2.38263,-1.4373 0.96463,0 1.49518,0.63666 0.54019,0.62701 0.54019,1.77492 v 6.7524 h -2.80707 v -5.41157 q 0,-0.5209 -0.21222,-0.81029 -0.20257,-0.29903 -0.56913,-0.29903 -0.87781,0 -0.87781,1.18649 v 5.3344 h -2.79743 z"
         style="font-family:'Tw Cen MT Condensed Extra Bold';-inkscape-font-specification:'Tw Cen MT Condensed Extra Bold, '"
         id="path889" />
      <path
         d="m 121.7087,115.29492 q 0,-0.65595 0.46303,-1.12862 0.47266,-0.47267 1.13826,-0.47267 0.66559,0 1.13826,0.47267 0.48231,0.46303 0.48231,1.10933 0,0.6463 -0.49196,1.13826 -0.48231,0.48231 -1.12861,0.48231 -0.6656,0 -1.13826,-0.46302 -0.46303,-0.47267 -0.46303,-1.13826 z"
         style="font-family:'Tw Cen MT Condensed Extra Bold';-inkscape-font-specification:'Tw Cen MT Condensed Extra Bold, '"
         id="path891" />
      <path
         d="m 132.32789,113.88656 v 2.31511 q -1.00321,0.67524 -2.01607,0.67524 -1.49518,0 -2.40193,-1.2926 -0.89711,-1.30225 -0.89711,-3.49196 0,-2.07395 0.92605,-3.3762 0.92604,-1.30225 2.39228,-1.30225 1.0225,0 2.01607,0.72347 v 2.29582 q -0.56913,-0.29904 -1.0225,-0.29904 -0.67524,0 -1.09004,0.54984 -0.41479,0.54019 -0.41479,1.44695 0,0.95498 0.40515,1.50482 0.40514,0.54984 1.09968,0.54984 0.42443,0 1.00321,-0.29904 z"
         style="font-family:'Tw Cen MT Condensed Extra Bold';-inkscape-font-specification:'Tw Cen MT Condensed Extra Bold, '"
         id="path893" />
      <path
         d="m 137.84419,107.4139 q 1.91961,0 2.92282,1.28296 1.00322,1.27331 1.00322,3.54983 0,2.22829 -1.0418,3.45337 -1.0418,1.21544 -2.88424,1.21544 -1.76527,0 -2.80707,-1.24438 -1.03216,-1.24437 -1.03216,-3.42443 0,-2.27652 0.98393,-3.54983 0.99356,-1.28296 2.8553,-1.28296 z m 0.0193,6.99356 q 0.54984,0 0.81993,-0.51125 0.27975,-0.51126 0.27975,-1.74598 0,-1.22508 -0.2701,-1.71704 -0.2701,-0.49196 -0.81029,-0.49196 -0.53054,0 -0.81029,0.48231 -0.27974,0.47267 -0.27974,1.74598 0,2.23794 1.07074,2.23794 z"
         style="font-family:'Tw Cen MT Condensed Extra Bold';-inkscape-font-specification:'Tw Cen MT Condensed Extra Bold, '"
         id="path895" />
      <path
         d="m 146.74633,107.72258 v 1.09003 q 1.19614,-1.39871 2.43087,-1.39871 1.48553,0 1.91961,1.53376 0.67524,-0.80064 1.25402,-1.1672 0.58842,-0.36656 1.36977,-0.36656 1.9582,0 1.9582,2.73955 v 6.44372 h -2.80707 v -5.23794 q 0,-1.28295 -0.82959,-1.28295 -0.84887,0 -0.84887,1.26366 v 5.25723 h -2.80707 v -5.39228 q 0,-0.49196 -0.23151,-0.81029 -0.22186,-0.31832 -0.57878,-0.31832 -0.3762,0 -0.60771,0.30868 -0.22187,0.30868 -0.22187,0.83922 v 5.37299 h -2.79742 v -8.87459 z"
         style="font-family:'Tw Cen MT Condensed Extra Bold';-inkscape-font-specification:'Tw Cen MT Condensed Extra Bold, '"
         id="path897" />
    </g>
  </g>
</svg>
